<?xml version="1.0" encoding="iso-8859-1"?>
<!-- Generator: Adobe Illustrator 18.0.0, SVG Export Plug-In . SVG Version: 6.00 Build 0)  -->
<!DOCTYPE svg PUBLIC "-//W3C//DTD SVG 1.1//EN" "http://www.w3.org/Graphics/SVG/1.1/DTD/svg11.dtd">
<svg version="1.1" id="Capa_1" xmlns="http://www.w3.org/2000/svg" xmlns:xlink="http://www.w3.org/1999/xlink" x="0px" y="0px"
	 viewBox="0 0 461.437 461.437" style="enable-background:new 0 0 461.437 461.437;" xml:space="preserve">
<g>
	<path d="M167.82600000000002,30.849a30.849,30.849 0 1,0 61.698,0a30.849,30.849 0 1,0 -61.698,0" />
	<path d="M155.292,248.779c-0.092,1.511,0.445,2.993,1.482,4.096s2.484,1.728,3.999,1.728h30.462c2.704,0,5.005-1.968,5.425-4.639
		l2.178-13.869l3.154,14.207c0.558,2.513,2.786,4.301,5.361,4.301h29.55c1.514,0,2.961-0.625,3.998-1.728
		c1.038-1.102,1.574-2.585,1.483-4.096l-4.125-44.626h-78.841L155.292,248.779z"/>
	<rect x="159.417" y="180.719" width="78.841" height="12.687"/>
	<path d="M54.456,192.311c13.518,0,24.493-10.955,24.493-24.493v0c0-13.527-10.966-24.493-24.493-24.493
		c-13.527,0-24.493,10.966-24.493,24.493C29.963,181.341,40.924,192.311,54.456,192.311z"/>
	<path d="M434.649,430.472c-7.969,7.969-20.936,7.969-28.904,0c-17.717-17.717-46.543-17.717-64.26,0
		c-7.969,7.969-20.936,7.969-28.904,0c-4.881-4.882-12.797-4.882-17.678,0c-4.882,4.881-4.882,12.796,0,17.678
		c17.717,17.717,46.543,17.717,64.26,0c7.969-7.969,20.935-7.969,28.904,0c8.858,8.858,20.494,13.287,32.13,13.287
		c11.636,0,23.271-4.429,32.13-13.287c4.882-4.881,4.882-12.796,0-17.678C447.445,425.59,439.529,425.59,434.649,430.472z"/>
	<path d="M359.162,401.117c7.969-7.969,20.935-7.969,28.904,0c8.858,8.858,20.494,13.287,32.13,13.287
		c11.636,0,23.271-4.429,32.13-13.287c4.882-4.881,4.882-12.796,0-17.678c-4.881-4.882-12.797-4.882-17.678,0
		c-7.969,7.969-20.936,7.969-28.904,0c-17.717-17.717-46.543-17.717-64.26,0c-7.969,7.969-20.936,7.969-28.904,0
		c-4.881-4.882-12.797-4.882-17.678,0c-4.882,4.881-4.882,12.796,0,17.678C312.619,418.834,341.445,418.834,359.162,401.117z"/>
	<path d="M259.671,230.888c8.221-0.041,14.852-6.739,14.811-14.959l-0.549-109.352c-0.099-19.325-15.899-35.047-35.225-35.047
		c-73.508,0,19.428,0-79.614,0c-19.326,0-35.127,15.723-35.224,35.047c0,0-0.521,110.437-0.467,110.969l-15.633,5.002L79.04,201.417
		c-2.783-2.047-5.402-1.84-7.083-1.84c-5.533,3.061-11.595,4.514-17.502,4.514c-6.343,0-12.309-1.641-17.502-4.514h-7.83
		c-12.293,0-22.343,10-22.403,22.291l-0.35,69.55c-0.026,5.228,4.19,9.488,9.419,9.514h0.049c5.206,0,9.44-4.207,9.466-9.419
		l0.35-69.55c0.006-1.092,0.894-1.974,1.986-1.971c1.092,0.003,1.976,0.889,1.976,1.981c-0.005,88.646-0.206,22.449-0.206,139.99
		c0,2.19,0.631,4.229,1.705,5.964H20.449c-8.284,0-15,6.716-15,15c0,8.284,6.716,15,15,15h219.537v48.511c0,8.284,6.716,15,15,15
		c8.284,0,15-6.716,15-15v-63.511c0-8.284-6.716-15-15-15h-20.532c2.37-3.031,3.796-6.837,3.796-10.983v-88.284h-35.723v88.284
		c0,4.146,1.426,7.952,3.796,10.983H191.02c2.37-3.031,3.796-6.837,3.796-10.983v-88.284h-35.723v88.284
		c0,4.146,1.426,7.952,3.796,10.983H78.052c1.074-1.735,1.705-3.773,1.705-5.964l0.004-136.511l20.683,15.212
		c2.448,1.8,5.608,2.314,8.494,1.39c12.769-3.749,21.548-7.333,33.765-11.861c5.905-1.869,10.352-7.42,10.386-14.113
		c0.024-4.775,0.526-104.647,0.55-109.352c0.008-1.593,1.304-2.879,2.896-2.875c1.592,0.004,2.881,1.297,2.881,2.889v61.274
		l78.841,0v-61.273c0-1.628,1.317-2.949,2.945-2.953c1.628-0.004,2.952,1.309,2.961,2.938c0-0.001,0,0,0,0
		c0.024,4.767,0.525,104.605,0.549,109.352c0.042,8.264,6.809,14.81,14.883,14.81C259.62,230.889,259.647,230.889,259.671,230.888z
		 M50.426,367.926c1.074-1.735,1.705-3.773,1.705-5.964v-71.661h4.905v71.661c0,2.19,0.631,4.229,1.705,5.964H50.426z"/>
</g>
<g>
</g>
<g>
</g>
<g>
</g>
<g>
</g>
<g>
</g>
<g>
</g>
<g>
</g>
<g>
</g>
<g>
</g>
<g>
</g>
<g>
</g>
<g>
</g>
<g>
</g>
<g>
</g>
<g>
</g>
</svg>
