<svg id="Layer_1" data-name="Layer 1" xmlns="http://www.w3.org/2000/svg" viewBox="0 0 231 309.75"><defs><style>.cls-1{fill:#fff;}.cls-1,.cls-2{fill-rule:evenodd;}.cls-2{fill:none;}</style></defs><title>sprintko</title><path class="cls-1" d="M-283.75,445.63c0-8.75.32-17.19,2.25-24v-6.75h.75V385.63h-.75l-.75-9-6.75-2.25-.75-1.5h-1.5c-3.44-2.3-6.75-5.43-6.75-11.25,2.65-2.23,3.35-5.1,7.5-6,.54-2.29,1.18-1.59,1.5-2.25v-3l1.5-.75a9.49,9.49,0,0,0,2.25-5.25c-3.1-.69-5.16-3-6.75-5.25h-.75v-6.75h.75v-4.5h.75v-1.5h.75c.32-1-.28-.09-.75-.75-1.63-2.23-.72-.41-3-1.5v-.75h-1.5v-.75h-1.5v-.75h-1.5v-.75h-1.5v-.75h-1.5v-.75l-4.5-1.5v-.75c-1.13-1-1-.39-1.5-2.25,6.23-1.2,12.42-3.39,18-5.25l9.75-1.5c2.91-1,9.35-4.55,14.25-3v.75h2.25v.75h3v.75h2.25v.75h3v.75h3v.75h3v.75H-247v.75h2.25v.75h3v.75l5.25.75v.75c.85.85.3,0,.75,1.5l-10.5,3c.45,2.11,1.66,3.57,2.25,5.25v3a19.12,19.12,0,0,1,.75,10.5,9.72,9.72,0,0,1-6,1.5,77,77,0,0,0-1.5-17.25,7.68,7.68,0,0,0-3-.75v.75h-3v.75h-.75c.85.85,0,.29,1.5.75.36,3.5,1.44,4.4,1.5,9-2.33,1.39-1.53,2.14-3,3.75l-9.75,7.5c2.53,6.56,5.86,11.34,13.5,12.75v6h.75v.75l-1.5.75v2.25l-1.5.75c-1.59,2.53-.13,3.57-3.75,4.5v1.5c-3.59.71-5.43,2.92-9,3.75a94.23,94.23,0,0,1-3,19.5v12.75c-2.39,8.49-.78,28.55,0,37.5,2.28.37,4.25,1.68,6,2.25h7.5v.75H-256l1.5,2.25h1.5v.75c1.11,1,1,.37,1.5,2.25h.75v3.75c-1.32,1.13-1.22,2.59-2.25,3.75l-8.25,7.5v1.5H-262v1.5h-.75v1.5h-.75v1.5h-.75v1.5H-265v1.5l-1.5.75v1.5h-.75v3.75H-268v2.25h-.75v1.5h-.75v.75h.75v6h.75c.21,1.28-1.43,3.53-.75,6h.75v6h.75v7.5h.75v6h.75v5.25h.75v6h.75v5.25h.75v1.5h.75v5.25h.75l1.5,8.25c4.67-.11,9.45.07,12.75,1.5v.75h1.5v.75H-244v.75h3v.75h3v.75h3v.75h3a157.79,157.79,0,0,0,22.5,6.75l.75,2.25h-.75v1.5l-2.25,1.5-1.5,4.5H-214c-.33,1.23.73,1.36.75,1.5l-.75,4.5-3.75,3-.75,3h-.75l1.5,7.5-4.5-1.5v-.75h-1.5l-.75-1.5-4.5-1.5-.75-1.5h-1.5l-.75-1.5h-1.5l-.75-1.5h-1.5l-.75-1.5H-238v-.75l-2.25-.75-.75-1.5h-1.5l-.75-1.5h-1.5l-1.5-2.25h-1.5l-.75-1.5H-250l-.75-1.5h-1.5c-3.34-2.22-5.12-4.87-10.5-5.25v1.5l-2.25,1.5-7.5,8.25H-274l-1.5,2.25h-.75v1.5H-277l-3,3.75h-1.5c-1.17,4.64-8.95,8.64-12,12-.9,1-1.8,3.92-3,4.5h-3.75c-1-2.21-3-5.12-5.25-6H-310c-.87-.5-.93-2.92-1.5-3.75h-.75l-3-3.75-9-.75v-.75h.75l1.5-2.25h1.5l1.5-2.25,3-.75.75-1.5h1.5l.75-1.5,3-.75.75-1.5h1.5v-.75h1.5v-.75h1.5v-.75h1.5l.75-1.5,4.5-1.5.75-1.5h1.5v-.75h1.5v-.75h1.5v-.75h1.5v-.75l3-.75.75-1.5h1.5v-.75h1.5c1.09-.61,9.45-6.14,9.75-6.75v-3c-2.69-3.15,0-12.73-1.5-18H-277l-.75-9h.75v-4.5h-.75v-5.25h-.75v-6.75h-.75v-5.25l-1.5-.75v-6h-.75l-.75-10.5-1.5-.75v-6.75l-1.5-.75v-1.5l-3-2.25v-1.5l-6.75-6-2.25-3h-1.5c-4.1-2.8-7.27-5.95-7.5-12.75,1-.82,1.36-2.1,2.25-3,1.11-1.14,2.74-1.77,3.75-3h6.75v-2.25h-.75c-.75-.93-1.78-.92-2.25-1.5v-1.5l-1.5-.75v-.75h-1.5l-.75-1.5h-1.5l-1.5-2.25h-1.5l-.75-2.25-1.5-.75-.75-3.75a9.25,9.25,0,0,1,3.75-.75c-1.12-5.26-5-6.5-5.25-13.5,2.38.19,2.87.75,4.5,1.5v-1.5h-.75l-.75-3.75H-307v-2.25h-.75v-1.5h-.75v-2.25h-.75v-1.5H-310v-2.25h-.75v-1.5l-1.5-.75-.75-2.25h-1.5l-.75-1.5h-1.5c-.75-.55-1.34-2.28-2.25-3v-3h2.25v-1.5l-18.75-15v-4.5a9.25,9.25,0,0,1,3.75-.75v-2.25c-3.11-.6-5.15-2.5-7.5-3.75h-1.5v-.75l-7.5-2.25v-.75l-3-.75v-.75h-1.5v-.75H-355v-.75l-4.5-1.5c-1.81-1-2.9-2.36-5.25-3-.47-2.31-1.2-2.6-1.5-5.25h.75v-.75l11.25-.75H-349v-.75l-2.25-.75-.75-1.5-3-.75-.75-1.5-4.5-1.5-3-3.75-1.5-.75v-3c2.75-1.46,4.43-1.56,9-1.5v.75h2.25v-1.5l-6.75-4.5v-1.5a42.36,42.36,0,0,0-3-4.5h-1.5v-.75l-3-.75v-.75H-370v-.75h-2.25v-.75h-2.25v-.75H-376v-.75l-6.75-1.5v-.75l-3.75-.75v-.75H-388v-.75h-2.25l-.75-1.5c-3.53-2.19-7.82-2.21-9-6.75h-.75l.75-4.5c1.72-.24,1.91-.14,3-.75v-.75h5.25c1.05-.17-.31-.76.75-.75v.75h6v.75h1.5v.75h5.25v.75h3v.75l6,.75v.75l6.75,1.5v.75h1.5v.75l4.5.75v.75l4.5,1.5v.75h1.5v.75l4.5,1.5.75,1.5h1.5l6,6.75,3.75,3v1.5l1.5.75v1.5l1.5.75v1.5l1.5.75v1.5l1.5.75.75,3,1.5.75v1.5h.75v1.5h.75v1.5h.75v1.5l1.5.75v1.5h.75v1.5h.75v1.5h.75v1.5h.75v1.5l1.5.75,1.5,4.5,1.5.75,1.5,4.5,1.5.75.75,3h.75v1.5h.75v1.5h.75v1.5h.75v1.5h.75v2.25l1.5.75v2.25h.75v1.5h.75v2.25h.75l.75,3h.75l.75,5.25h.75v2.25h.75l.75,7.5h.75v3h.75v3h.75v3.75h.75v3.75h.75v3h.75v4.5h.75v4.5h.75v3h.75v3h.75v3h.75v2.25h.75v2.25h.75v3h.75v2.25h.75v3h.75l.75,4.5h.75C-284.4,445.73-285.25,445.17-283.75,445.63Z" transform="translate(400.75 -293.37)"/><path class="cls-2" d="M328,514.5c-.07,4.7.79,7.63,1.5,11.25h.75V519h-.75v-4.5Z" transform="translate(400.75 -293.37)"/></svg>