<svg id="Layer_1" enable-background="new 0 0 511.549 511.549" height="512" viewBox="0 0 511.549 511.549" width="512" xmlns="http://www.w3.org/2000/svg"><g><path d="m299.461 304.274c1.867.609 3.92.867 6.829.867 6.921 0 9.01-1.432 15.214-5.684 8.448-5.79 21.212-14.539 43.797-14.539 22.584 0 35.35 8.749 43.796 14.539 6.203 4.251 8.293 5.684 15.214 5.684 7.994 0 9.545-1.936 18.055-7.612l-39.326-69.667 26.434-72.272 67-57.491c9.084-7.795 10.129-21.477 2.334-30.561-7.793-9.084-21.477-10.13-30.561-2.334l-71.297 61.178c-2.817 2.417-4.966 5.517-6.241 9.004l-32.349 88.445c-.059.162-.109.324-.164.486l-58.869 31.944c7.099 15.686 6.724 33.132.134 48.013z"/><path d="M423.20300000000003,219.954a43.587,43.587 0 1,0 87.174,0a43.587,43.587 0 1,0 -87.174,0" /><path d="m482.203 411.125c-17.886 0-27.498 6.588-35.223 11.882-6.8 4.66-12.17 8.341-23.792 8.341-11.621 0-16.992-3.681-23.792-8.34-7.725-5.294-17.338-11.882-35.224-11.882s-27.498 6.588-35.222 11.882c-6.8 4.66-12.169 8.34-23.79 8.34-11.619 0-16.99-3.681-23.789-8.34-7.724-5.294-17.337-11.882-35.222-11.882s-27.497 6.589-35.22 11.882c-6.799 4.66-12.168 8.34-23.788 8.34s-16.99-3.681-23.789-8.34c-7.724-5.294-17.337-11.882-35.222-11.882s-27.497 6.588-35.221 11.882c-6.799 4.66-12.169 8.34-23.79 8.34-11.619 0-16.989-3.681-23.788-8.34-7.724-5.294-17.336-11.882-35.221-11.882-5.583-.001-10.11 4.526-10.11 10.111s4.527 10.111 10.111 10.111c11.62 0 16.99 3.681 23.789 8.34 7.724 5.294 17.336 11.882 35.22 11.882 17.886 0 27.498-6.589 35.222-11.882 6.799-4.66 12.169-8.34 23.789-8.34s16.991 3.681 23.79 8.34c7.724 5.294 17.337 11.882 35.221 11.882s27.497-6.589 35.22-11.882c6.799-4.66 12.168-8.34 23.788-8.34s16.991 3.681 23.79 8.34c7.724 5.294 17.337 11.882 35.221 11.882 17.886 0 27.499-6.589 35.223-11.882 6.799-4.66 12.169-8.34 23.79-8.34s16.992 3.681 23.792 8.34c7.725 5.294 17.338 11.882 35.224 11.882 17.887 0 27.499-6.588 35.224-11.882 6.8-4.66 12.169-8.34 23.79-8.34 5.584 0 10.111-4.527 10.111-10.111s-4.528-10.112-10.112-10.112z"/><path d="m245.837 324.032c32.612 0 54.222-35.207 38.206-64.504-7.918-14.484-22.864-22.687-38.284-22.687-32.611 0-54.222 35.207-38.206 64.504 7.918 14.484 22.863 22.687 38.284 22.687z"/><path d="m511.549 307.445c-6.696-3.911-15.294-7.36-28.229-7.36-17.885 0-27.496 6.588-35.22 11.882-6.799 4.66-12.168 8.34-23.789 8.34-11.62 0-16.99-3.681-23.789-8.34-7.724-5.294-17.337-11.882-35.221-11.882-17.886 0-27.498 6.589-35.222 11.882-6.799 4.66-12.169 8.34-23.789 8.34-6.42 0-10.928-1.127-14.828-2.918-4.428 5.486-9.92 10.246-16.371 13.955 7.113 4.596 16.27 9.186 31.198 9.186 17.885 0 27.497-6.588 35.221-11.882 6.799-4.66 12.169-8.34 23.79-8.34 11.62 0 16.99 3.681 23.789 8.34 7.724 5.294 17.337 11.882 35.221 11.882 17.886 0 27.497-6.589 35.221-11.882 6.799-4.66 12.168-8.34 23.788-8.34s16.99 3.681 23.789 8.34c1.404.962 2.873 1.967 4.441 2.968z"/><path d="m482.203 360.568c-17.886 0-27.498 6.588-35.223 11.882-6.8 4.66-12.17 8.341-23.792 8.341-11.621 0-16.992-3.681-23.792-8.34-7.725-5.294-17.338-11.882-35.224-11.882s-27.498 6.588-35.222 11.882c-6.8 4.66-12.169 8.34-23.79 8.34-11.619 0-16.99-3.681-23.789-8.34-7.724-5.294-17.337-11.882-35.222-11.882s-27.497 6.589-35.22 11.882c-6.799 4.66-12.168 8.34-23.788 8.34s-16.99-3.681-23.789-8.34c-7.724-5.294-17.337-11.882-35.222-11.882s-27.497 6.588-35.221 11.882c-6.799 4.66-12.169 8.34-23.79 8.34-11.619 0-16.989-3.681-23.788-8.34-7.724-5.294-17.336-11.882-35.221-11.882-5.583-.001-10.11 4.526-10.11 10.111s4.527 10.111 10.111 10.111c11.62 0 16.99 3.681 23.789 8.34 7.724 5.294 17.336 11.882 35.22 11.882 17.886 0 27.498-6.589 35.222-11.882 6.799-4.66 12.169-8.34 23.789-8.34s16.991 3.681 23.79 8.34c7.724 5.294 17.337 11.882 35.221 11.882s27.497-6.589 35.22-11.882c6.799-4.66 12.168-8.34 23.788-8.34s16.991 3.681 23.79 8.34c7.724 5.294 17.337 11.882 35.221 11.882 17.886 0 27.499-6.589 35.223-11.882 6.799-4.66 12.169-8.34 23.79-8.34s16.992 3.681 23.792 8.34c7.725 5.294 17.338 11.882 35.224 11.882 17.887 0 27.499-6.588 35.224-11.882 6.8-4.66 12.169-8.34 23.79-8.34 5.584 0 10.111-4.527 10.111-10.111-.001-5.585-4.528-10.112-10.112-10.112z"/><path d="m511.549 307.445c-6.696-3.911-15.294-7.36-28.229-7.36-17.885 0-27.496 6.588-35.22 11.882-6.799 4.66-12.168 8.34-23.789 8.34-11.62 0-16.99-3.681-23.789-8.34-7.724-5.294-17.337-11.882-35.221-11.882-17.886 0-27.498 6.589-35.222 11.882-6.799 4.66-12.169 8.34-23.789 8.34-6.42 0-10.928-1.127-14.828-2.918-4.428 5.486-9.92 10.246-16.371 13.955 7.113 4.596 16.27 9.186 31.198 9.186 17.885 0 27.497-6.588 35.221-11.882 6.799-4.66 12.169-8.34 23.79-8.34 11.62 0 16.99 3.681 23.789 8.34 7.724 5.294 17.337 11.882 35.221 11.882 17.886 0 27.497-6.589 35.221-11.882 6.799-4.66 12.168-8.34 23.788-8.34s16.99 3.681 23.789 8.34c1.404.962 2.873 1.967 4.441 2.968z"/><path d="m284.043 259.528c-7.918-14.484-22.864-22.687-38.284-22.687-32.611 0-54.222 35.207-38.206 64.504 7.918 14.484 22.864 22.687 38.284 22.687 32.611 0 54.222-35.207 38.206-64.504z"/><path d="m137.205 284.799-113.737 61.717c14.557 2.54 23.824 8.889 30.439 13.424 6.203 4.251 8.293 5.684 15.213 5.684 6.922 0 9.011-1.432 15.215-5.684 8.447-5.789 21.212-14.539 43.796-14.539 22.585 0 35.35 8.749 43.797 14.539 6.203 4.251 8.293 5.684 15.214 5.684 6.92 0 9.009-1.432 15.213-5.684 3.794-2.6 8.462-5.796 14.496-8.529l-34.805-63.056 26.438-72.282 67-57.491c9.084-7.795 10.129-21.477 2.334-30.561-7.796-9.084-21.477-10.129-30.561-2.334l-71.296 61.178c-2.817 2.417-4.966 5.517-6.241 9.003-2.962 8.098-28.348 77.506-32.35 88.445-.06.161-.11.324-.165.486z"/><path d="m187.142 380.791c-11.619 0-16.99-3.681-23.789-8.34-7.724-5.294-17.337-11.882-35.222-11.882s-27.497 6.588-35.221 11.882c-6.799 4.66-12.169 8.34-23.79 8.34-11.619 0-16.989-3.681-23.788-8.34-7.724-5.294-17.336-11.882-35.221-11.882-5.584-.001-10.111 4.526-10.111 10.111s4.527 10.111 10.111 10.111c11.62 0 16.99 3.681 23.789 8.34 7.724 5.294 17.336 11.882 35.22 11.882 17.886 0 27.498-6.589 35.222-11.882 6.799-4.66 12.169-8.34 23.789-8.34s16.991 3.681 23.79 8.34c7.724 5.294 17.337 11.882 35.221 11.882s27.497-6.589 35.22-11.882c6.799-4.66 12.168-8.34 23.788-8.34s16.991 3.681 23.79 8.34c7.724 5.294 17.337 11.882 35.221 11.882 17.886 0 27.499-6.589 35.223-11.882 6.799-4.66 12.169-8.34 23.79-8.34s16.992 3.681 23.792 8.34c7.725 5.294 17.338 11.882 35.224 11.882 17.887 0 27.499-6.588 35.224-11.882 6.8-4.66 12.169-8.34 23.79-8.34 5.584 0 10.111-4.527 10.111-10.111s-4.527-10.111-10.111-10.111c-17.886 0-27.498 6.588-35.223 11.882-6.8 4.66-12.17 8.341-23.792 8.341-11.621 0-16.992-3.681-23.792-8.34-7.725-5.294-17.338-11.882-35.224-11.882s-27.498 6.588-35.222 11.882c-6.8 4.66-12.169 8.34-23.79 8.34-11.619 0-16.99-3.681-23.789-8.34-7.724-5.294-17.337-11.882-35.222-11.882s-27.497 6.589-35.22 11.882c-6.799 4.658-12.169 8.339-23.788 8.339z"/><path d="m446.98 423.007c-6.8 4.66-12.17 8.341-23.792 8.341-11.621 0-16.992-3.681-23.792-8.34-7.725-5.294-17.338-11.882-35.224-11.882s-27.498 6.588-35.222 11.882c-6.8 4.66-12.169 8.34-23.79 8.34-11.619 0-16.99-3.681-23.789-8.34-7.724-5.294-17.337-11.882-35.222-11.882s-27.497 6.589-35.22 11.882c-6.799 4.66-12.168 8.34-23.788 8.34s-16.99-3.681-23.789-8.34c-7.724-5.294-17.337-11.882-35.222-11.882s-27.497 6.588-35.221 11.882c-6.799 4.66-12.169 8.34-23.79 8.34-11.619 0-16.989-3.681-23.788-8.34-7.724-5.294-17.336-11.882-35.221-11.882-5.583-.001-10.11 4.526-10.11 10.111s4.527 10.111 10.111 10.111c11.62 0 16.99 3.681 23.789 8.34 7.724 5.294 17.336 11.882 35.22 11.882 17.886 0 27.498-6.589 35.222-11.882 6.799-4.66 12.169-8.34 23.789-8.34s16.991 3.681 23.79 8.34c7.724 5.294 17.337 11.882 35.221 11.882s27.497-6.589 35.22-11.882c6.799-4.66 12.168-8.34 23.788-8.34s16.991 3.681 23.79 8.34c7.724 5.294 17.337 11.882 35.221 11.882 17.886 0 27.499-6.589 35.223-11.882 6.799-4.66 12.169-8.34 23.79-8.34s16.992 3.681 23.792 8.34c7.725 5.294 17.338 11.882 35.224 11.882 17.887 0 27.499-6.588 35.224-11.882 6.8-4.66 12.169-8.34 23.79-8.34 5.584 0 10.111-4.527 10.111-10.111s-4.527-10.111-10.111-10.111c-17.887-.001-27.499 6.588-35.224 11.881z"/></g></svg>