<?xml version="1.0" standalone="no"?>
<!DOCTYPE svg PUBLIC "-//W3C//DTD SVG 20010904//EN"
 "http://www.w3.org/TR/2001/REC-SVG-20010904/DTD/svg10.dtd">
<svg version="1.0" xmlns="http://www.w3.org/2000/svg"
 width="300.000000pt" height="300.000000pt" viewBox="0 0 300.000000 300.000000"
 preserveAspectRatio="xMidYMid meet">
<metadata>
Created by potrace 1.11, written by Peter Selinger 2001-2013
</metadata>
<g transform="translate(0.000000,300.000000) scale(0.100000,-0.100000)"
fill="#000000" stroke="none">
<path d="M1305 2984 c-122 -17 -135 -20 -250 -55 -515 -158 -907 -589 -1024
-1130 -19 -86 -26 -174 -25 -319 0 -125 6 -185 28 -297 28 -138 110 -344 186
-465 248 -391 624 -636 1085 -705 65 -10 325 -9 395 1 572 82 1041 469 1222
1009 57 170 73 275 73 472 0 274 -42 452 -161 686 -94 184 -211 331 -368 463
-83 70 -205 151 -302 199 -66 33 -248 101 -297 111 -12 3 -47 9 -77 15 -30 6
-68 13 -85 16 -61 12 -313 11 -400 -1z m379 -39 c28 -4 58 -8 66 -10 8 -2 31
-6 50 -9 19 -4 79 -20 134 -37 366 -113 683 -378 859 -718 64 -122 120 -283
143 -408 21 -114 25 -362 8 -472 -53 -335 -190 -601 -430 -836 -360 -354 -888
-492 -1384 -364 -631 164 -1079 736 -1084 1384 -1 151 4 210 30 332 88 429
402 826 799 1009 83 38 266 101 323 110 176 30 357 37 486 19z"/>
<path d="M1455 2922 c-45 -2 -128 -12 -240 -28 -73 -11 -279 -85 -374 -135
-268 -140 -480 -358 -615 -631 -104 -211 -147 -395 -147 -623 -1 -480 230
-917 626 -1185 274 -185 603 -268 939 -237 44 4 82 9 85 11 3 2 24 7 46 10
308 48 656 265 854 530 98 132 120 170 190 329 44 101 84 255 97 377 28 276
-17 534 -137 785 -213 443 -680 760 -1162 791 -51 3 -96 6 -102 7 -5 1 -32 1
-60 -1z m151 -26 c394 -22 792 -243 1034 -576 97 -134 207 -374 226 -496 3
-22 8 -43 11 -48 22 -35 34 -311 19 -437 -27 -228 -102 -429 -234 -629 -75
-112 -262 -299 -373 -373 -567 -376 -1306 -305 -1780 172 -401 402 -520 989
-309 1521 106 268 334 530 594 683 175 102 395 170 595 184 47 3 88 7 89 9 2
1 9 1 15 -1 7 -2 57 -6 113 -9z"/>
<path d="M1346 2801 c-26 -29 -14 -65 28 -85 39 -18 51 -40 31 -56 -15 -13
-50 1 -58 22 -7 22 -19 1 -12 -21 5 -16 15 -21 43 -21 42 0 54 6 70 35 14 26
0 50 -41 71 -39 21 -49 34 -35 51 15 18 24 16 48 -9 l22 -23 -4 25 c-2 21 -9
26 -39 28 -25 2 -40 -3 -53 -17z"/>
<path d="M1491 2810 c23 -13 17 -130 -8 -147 -15 -11 -13 -13 18 -14 19 0 42
-2 52 -4 21 -4 23 11 1 19 -12 5 -14 19 -12 71 3 59 5 65 23 63 29 -4 34 -57
6 -65 -23 -6 -29 -23 -8 -23 34 1 57 15 66 41 16 47 -13 69 -91 69 -44 -1 -58
-3 -47 -10z"/>
<path d="M1722 2785 c-54 -24 -69 -98 -28 -140 49 -49 122 -40 152 18 42 81
-37 159 -124 122z m78 -20 c16 -19 15 -87 -2 -114 -19 -30 -55 -27 -71 7 -7
15 -12 33 -11 40 1 6 2 21 3 31 3 43 56 66 81 36z"/>
<path d="M1153 2777 c-39 -15 -52 -27 -29 -27 17 0 39 -40 27 -51 -3 -4 -20
-10 -37 -13 -27 -6 -32 -4 -37 15 -4 13 -1 29 5 36 13 17 3 16 -47 -2 -34 -12
-37 -15 -19 -20 30 -9 63 -118 43 -142 -12 -14 -11 -15 11 -8 57 18 76 28 58
32 -9 2 -21 17 -26 33 -10 27 -9 28 28 38 36 9 39 8 45 -15 3 -14 1 -31 -6
-39 -14 -17 -8 -17 42 -2 22 6 39 15 39 20 0 5 -4 7 -9 4 -14 -9 -27 14 -45
73 -12 40 -13 58 -5 68 14 16 5 16 -38 0z"/>
<path d="M1937 2730 c7 -28 -37 -132 -54 -126 -7 3 -13 1 -13 -4 0 -5 16 -17
36 -25 44 -18 49 -19 36 -2 -11 14 3 61 17 53 5 -3 12 -22 15 -41 4 -22 17
-41 32 -51 32 -21 38 -14 19 22 -19 37 -19 74 0 74 19 0 37 34 28 56 -3 9 -30
27 -60 40 -65 29 -62 29 -56 4z m73 -35 c14 -17 7 -43 -15 -52 -26 -9 -38 10
-24 40 14 31 22 33 39 12z"/>
<path d="M918 2684 c-28 -15 -40 -38 -15 -28 17 6 70 -102 61 -128 -6 -18 -4
-18 38 3 31 17 38 24 25 27 -25 5 -80 115 -64 131 16 16 -11 14 -45 -5z"/>
<path d="M2110 2641 c-15 -28 -13 -33 9 -20 10 7 26 9 35 6 19 -7 16 -16 -30
-89 -18 -28 -28 -35 -44 -31 -32 9 -23 -3 24 -31 48 -28 68 -34 48 -14 -18 18
-15 27 22 86 30 49 34 52 49 38 9 -9 14 -23 11 -31 -9 -22 9 -18 23 5 12 18 7
23 -55 60 -38 22 -71 40 -75 40 -3 0 -11 -9 -17 -19z"/>
<path d="M805 2624 c-25 -21 -26 -24 -8 -19 16 4 27 -2 47 -28 14 -19 26 -36
26 -40 0 -3 -28 3 -62 14 -78 24 -81 23 -109 -1 -21 -18 -22 -20 -5 -18 14 2
31 -13 58 -51 31 -45 36 -57 25 -69 -13 -16 -10 -15 36 7 30 16 37 35 10 27
-13 -4 -26 6 -45 33 -16 22 -28 41 -28 44 0 3 34 -6 77 -19 47 -15 80 -21 85
-16 6 6 -6 33 -31 70 -26 37 -39 66 -35 76 9 23 -7 20 -41 -10z"/>
<path d="M2293 2500 c-24 -10 -53 -49 -57 -77 -8 -45 51 -103 103 -103 28 0
80 49 85 80 5 35 -19 77 -54 95 -33 17 -45 18 -77 5z m89 -34 c16 -23 7 -58
-24 -91 -25 -27 -38 -34 -56 -29 -29 8 -37 44 -18 82 28 54 75 72 98 38z"/>
<path d="M581 2450 c-30 -28 -52 -50 -50 -51 2 0 13 -2 25 -3 11 -1 37 -20 57
-42 29 -30 36 -45 31 -64 -4 -21 4 -16 51 30 55 54 67 88 36 98 -9 3 -11 -1
-7 -16 5 -14 0 -28 -13 -41 -22 -22 -46 -19 -55 6 -9 21 12 43 32 35 15 -5 16
-4 2 17 -14 20 -39 27 -32 8 1 -4 -4 -14 -12 -22 -11 -12 -17 -11 -35 9 -21
22 -21 23 -3 40 11 9 26 14 36 10 19 -7 21 9 3 24 -10 9 -26 -1 -66 -38z"/>
<path d="M2477 2362 c2 -10 -14 -48 -37 -86 -27 -44 -38 -72 -32 -78 6 -6 37
-2 86 12 42 12 85 18 96 15 26 -8 25 -1 -2 30 -23 27 -41 33 -32 11 5 -13 -24
-29 -79 -42 l-28 -7 31 51 c23 37 35 49 47 45 19 -7 12 9 -20 45 -25 27 -37
28 -30 4z"/>
<path d="M434 2283 c-24 -27 -44 -54 -44 -62 0 -9 4 -10 13 -3 18 15 114 -66
109 -93 -4 -17 -2 -18 12 -6 27 23 76 104 76 127 0 12 -12 36 -26 53 -20 24
-34 31 -61 31 -29 0 -43 -8 -79 -47z m89 6 c35 -16 61 -64 47 -89 -6 -11 -16
-20 -22 -20 -11 0 -108 70 -108 79 0 10 34 41 46 41 7 0 24 -5 37 -11z"/>
<path d="M1433 2220 c-24 -3 -45 -9 -49 -12 -12 -13 7 -26 39 -26 97 0 175
-50 184 -118 5 -36 1 -45 -27 -78 l-33 -37 29 7 c50 12 78 25 111 50 l32 24
17 -25 c32 -48 53 -137 49 -210 -3 -78 -19 -124 -84 -237 l-44 -77 -65 60
c-79 72 -107 82 -135 48 -13 -17 -17 -33 -14 -56 7 -43 54 -148 90 -202 29
-42 30 -47 31 -180 2 -116 5 -146 26 -206 42 -119 99 -136 209 -66 95 62 163
151 213 284 43 113 64 141 131 179 153 86 221 148 215 193 -4 27 -42 32 -60 8
-41 -57 -121 -71 -163 -28 -14 13 -25 34 -26 47 -8 217 -80 395 -204 505 -134
120 -314 178 -472 153z m453 -442 c15 -24 6 -109 -18 -155 -17 -35 -44 -64
-106 -111 -46 -34 -87 -60 -92 -57 -5 3 18 51 50 108 33 56 65 126 73 155 17
68 40 96 67 82 10 -5 22 -15 26 -22z m-240 -623 c24 -52 28 -86 25 -218 -1
-86 -11 -95 -43 -41 -38 65 -66 250 -50 332 l5 25 20 -24 c11 -13 30 -46 43
-74z m130 19 c-3 -29 -13 -70 -21 -91 l-16 -38 -20 24 c-21 26 -20 31 13 124
17 48 23 55 35 45 11 -8 13 -25 9 -64z"/>
<path d="M1093 2145 c-61 -31 -151 -113 -187 -172 -14 -23 -42 -84 -62 -135
-20 -51 -47 -106 -59 -123 -13 -16 -57 -48 -100 -70 -103 -54 -185 -127 -185
-165 0 -37 15 -46 43 -26 85 63 89 65 125 61 48 -4 82 -43 82 -93 1 -97 36
-234 83 -331 63 -130 216 -249 382 -297 90 -26 265 -18 265 12 0 8 -11 14 -27
15 -16 0 -37 2 -48 4 -11 2 -35 7 -53 10 -18 3 -48 22 -67 41 -45 44 -48 97
-10 142 14 17 25 32 25 35 0 9 -98 -30 -129 -52 -16 -12 -32 -21 -36 -21 -3 0
-17 25 -31 55 -18 38 -27 79 -31 138 -6 95 9 145 86 278 l44 74 55 -53 c71
-69 105 -87 131 -70 27 16 33 46 20 94 -12 42 -57 137 -92 194 -19 31 -22 50
-23 165 0 153 -25 247 -76 290 -37 32 -61 31 -125 0z m133 -31 c32 -48 54
-154 55 -258 0 -54 -2 -100 -5 -103 -8 -8 -56 71 -75 123 -12 33 -17 72 -16
119 2 39 3 87 4 108 1 43 14 47 37 11z m-77 -186 c10 -28 -35 -171 -53 -165
-15 5 -13 116 3 155 16 37 38 41 50 10z m41 -387 c0 -5 -24 -50 -54 -100 -30
-50 -62 -121 -72 -157 -13 -50 -23 -69 -41 -77 -39 -17 -58 11 -57 82 3 96 30
134 163 228 48 34 61 39 61 24z"/>
<path d="M330 2112 c-43 -43 -43 -100 1 -136 44 -37 90 -35 123 5 51 60 21
143 -56 156 -32 5 -41 1 -68 -25z m107 -39 c29 -19 34 -37 17 -62 -18 -25 -53
-27 -94 -6 -45 23 -55 50 -30 75 23 23 65 20 107 -7z"/>
<path d="M2470 2125 c0 -2 9 -19 20 -37 12 -20 20 -26 20 -17 0 25 32 33 47
13 16 -22 16 -37 1 -52 -8 -8 -15 -9 -25 -1 -17 15 -16 7 4 -36 19 -41 28 -44
37 -12 3 12 26 44 51 71 64 70 61 79 -22 71 -38 -4 -76 -9 -85 -11 -10 -1 -20
1 -23 7 -6 9 -25 13 -25 4z m150 -21 c0 -3 -7 -13 -16 -21 -13 -14 -17 -14
-24 -2 -6 8 -4 16 3 21 14 9 37 10 37 2z"/>
<path d="M245 1940 c-3 -5 -4 -10 -1 -10 3 0 1 -11 -4 -25 -6 -16 -6 -25 0
-25 6 0 10 5 10 10 0 6 4 10 10 10 13 0 89 -53 90 -62 0 -5 -15 -8 -32 -9 -18
0 -43 -2 -55 -3 -13 -2 -25 4 -29 13 -4 11 -10 2 -20 -29 -13 -43 -10 -67 5
-42 4 7 30 15 57 18 79 9 117 19 121 30 2 5 -26 31 -62 58 -36 26 -65 54 -65
62 0 16 -16 19 -25 4z"/>
<path d="M2713 1926 c-25 -12 -30 -26 -10 -26 29 0 57 13 57 26 0 16 -16 16
-47 0z"/>
<path d="M2726 1886 c-34 -15 -22 -28 20 -20 34 6 38 9 29 23 -8 13 -12 13
-49 -3z"/>
<path d="M2655 1775 c-17 -17 -25 -35 -25 -60 0 -49 15 -74 56 -91 29 -12 39
-12 68 0 61 26 75 92 30 145 -34 41 -92 44 -129 6z m119 -21 c10 -4 16 -18 16
-36 0 -24 -6 -32 -40 -47 -67 -30 -110 -11 -96 42 9 37 74 59 120 41z"/>
<path d="M201 1641 c-14 -9 -33 -141 -19 -141 4 0 8 5 8 11 0 6 23 9 58 8 68
-3 94 -8 87 -19 -3 -5 -1 -11 5 -15 6 -4 10 6 11 22 1 15 2 40 3 55 4 41 -22
88 -49 88 -12 0 -28 -7 -35 -15 -10 -12 -15 -12 -34 0 -13 9 -27 11 -35 6z
m47 -59 c3 -17 -2 -22 -21 -22 -31 0 -39 9 -27 30 13 24 44 19 48 -8z m90 1
c2 -13 0 -23 -5 -24 -57 -7 -63 -6 -63 16 0 29 9 37 40 33 17 -2 26 -10 28
-25z"/>
<path d="M2807 1565 c-5 -11 -22 -15 -72 -15 -37 0 -65 4 -65 10 0 6 -4 10
-10 10 -5 0 -10 -18 -10 -40 0 -44 4 -47 26 -25 14 14 44 11 44 -6 0 -4 -14
-16 -30 -26 -32 -18 -33 -22 -49 -113 -8 -50 -5 -83 6 -52 5 13 63 17 63 5 0
-5 -18 -16 -40 -27 -35 -17 -41 -25 -59 -84 -19 -64 -20 -92 -1 -62 8 13 11
13 24 0 23 -22 10 -60 -20 -60 -13 0 -24 5 -24 12 0 19 -16 -3 -28 -39 -11
-33 -5 -42 14 -23 6 6 45 11 87 12 84 1 107 17 65 47 -13 8 -42 33 -65 54 -36
33 -40 42 -32 60 6 12 28 33 50 45 46 27 57 22 84 -34 9 -20 18 -34 20 -32 2
2 6 20 9 42 5 32 4 37 -7 27 -11 -8 -18 -6 -34 12 -37 41 -38 48 -2 42 19 -3
37 -11 41 -18 10 -16 14 -8 21 36 3 20 2 37 -4 37 -5 0 -9 -5 -9 -11 0 -7 -15
-9 -42 -4 -114 17 -120 25 -63 81 l34 35 21 -20 c11 -12 24 -21 29 -21 18 0
41 32 42 58 3 91 -2 121 -14 87z m-1 -58 c3 -2 2 -11 -1 -20 -7 -16 -33 -26
-52 -20 -13 5 -18 35 -8 45 6 6 54 2 61 -5z m-112 -412 c19 -14 19 -15 -7 -15
-17 0 -27 5 -27 15 0 19 9 19 34 0z"/>
<path d="M174 1439 c3 -13 5 -33 6 -44 1 -19 1 -19 15 -1 18 24 87 37 116 22
27 -13 34 -49 15 -69 -20 -20 -107 -31 -117 -15 -14 22 -21 0 -14 -42 6 -35 9
-39 19 -25 7 9 30 19 51 22 69 9 90 23 93 66 2 24 -3 48 -13 63 -15 23 -22 25
-80 23 -41 -1 -70 2 -80 11 -13 11 -15 10 -11 -11z"/>
<path d="M322 1251 c-10 -6 -5 -11 18 -19 26 -10 31 -16 28 -38 -3 -25 -9 -29
-63 -41 -40 -9 -61 -10 -63 -3 -2 5 -7 10 -11 10 -5 0 -4 -20 2 -45 10 -43 27
-62 27 -30 0 9 20 20 52 30 71 21 87 19 94 -9 7 -29 -30 -106 -51 -106 -21 0
-69 20 -76 32 -16 25 -14 -10 2 -42 11 -21 18 -28 19 -17 0 19 17 22 54 7 32
-12 33 -22 2 -36 -17 -8 -28 -8 -35 -1 -18 18 -20 4 -4 -35 14 -35 36 -54 30
-25 -1 6 24 25 56 40 46 23 61 26 73 16 19 -15 18 -1 -2 47 -11 25 -19 34 -22
24 -6 -19 -32 -40 -50 -40 -13 0 -13 2 -1 18 41 51 41 57 7 160 -18 53 -32 98
-33 98 -2 8 -43 12 -53 5z"/>
<path d="M2655 925 c20 -17 33 -21 40 -14 13 13 -20 39 -49 39 -19 -1 -18 -3
9 -25z"/>
<path d="M2616 912 c-3 -5 8 -18 23 -30 27 -20 41 -20 41 -1 0 13 -58 40 -64
31z"/>
<path d="M576 604 c-21 -20 -20 -37 3 -58 16 -15 22 -15 40 -4 26 16 27 54 2
68 -25 13 -27 13 -45 -6z"/>
<path d="M2376 604 c-22 -21 -20 -40 5 -58 40 -28 82 27 47 62 -16 16 -33 15
-52 -4z"/>
<path d="M815 540 c-3 -5 -1 -10 4 -10 20 0 12 -24 -26 -78 -22 -32 -41 -51
-50 -48 -29 11 -11 -11 22 -27 33 -16 46 -12 26 9 -6 5 0 25 16 52 14 24 27
42 28 40 1 -2 -1 -30 -5 -63 -4 -33 -5 -63 -1 -67 4 -4 27 10 51 32 25 21 48
39 53 40 15 0 -34 -81 -54 -88 -17 -7 -13 -11 26 -30 42 -20 58 -19 36 3 -15
15 35 114 61 124 l22 8 -21 12 c-32 16 -41 14 -83 -19 -21 -16 -41 -30 -45
-30 -4 0 -5 25 -3 56 4 51 2 57 -23 75 -17 12 -30 15 -34 9z"/>
<path d="M2088 493 c-27 -14 -48 -30 -48 -34 0 -5 6 -6 13 -4 7 3 26 -19 46
-56 27 -49 31 -63 20 -70 -7 -4 -11 -11 -7 -14 7 -7 78 34 78 46 0 4 -6 6 -13
4 -13 -5 -42 33 -33 43 3 3 24 -3 46 -13 32 -15 45 -16 65 -7 25 12 36 36 12
26 -7 -2 -29 2 -49 10 -30 13 -35 19 -31 41 6 29 -11 55 -36 55 -9 0 -37 -12
-63 -27z m70 -34 c5 -40 -24 -45 -43 -9 -20 39 -19 42 13 38 21 -2 28 -9 30
-29z"/>
<path d="M1883 398 c-5 -7 -10 -44 -12 -83 -2 -46 -8 -76 -18 -87 -13 -15 -13
-18 -2 -18 23 1 76 28 57 29 -26 1 -23 40 5 50 28 11 50 -5 41 -32 -5 -17 -3
-19 12 -12 11 4 29 10 42 12 24 6 31 23 8 23 -8 0 -38 29 -66 65 -28 36 -53
65 -55 65 -1 0 -7 -6 -12 -12z m37 -80 c0 -5 -7 -8 -15 -8 -10 0 -15 10 -15
27 0 26 1 26 15 7 8 -10 15 -22 15 -26z"/>
<path d="M1112 380 c-33 -14 -54 -70 -41 -108 22 -64 105 -83 152 -36 31 30
38 69 20 106 -22 45 -74 60 -131 38z m76 -16 c24 -17 28 -52 11 -102 -23 -67
-96 -34 -86 40 5 35 30 78 46 78 4 0 17 -7 29 -16z"/>
<path d="M1689 356 c-2 -3 -27 -6 -54 -8 -60 -4 -74 -12 -72 -38 2 -25 9 -25
25 0 24 39 39 24 47 -46 6 -57 4 -67 -12 -80 -16 -13 -12 -13 37 -8 63 8 73
12 42 21 -12 3 -22 6 -22 7 0 0 -3 31 -6 69 -6 58 -4 67 10 67 9 0 19 -7 22
-15 9 -24 24 -17 24 10 0 18 -5 25 -18 25 -10 0 -21 -2 -23 -4z"/>
<path d="M1382 334 c-38 -26 -29 -53 36 -106 26 -21 28 -34 6 -42 -20 -8 -54
11 -54 29 0 8 -4 15 -10 15 -16 0 -12 -36 5 -50 19 -16 71 -16 90 0 7 6 15 20
18 31 5 20 -1 29 -58 76 -14 13 -24 27 -20 33 10 16 55 12 55 -5 0 -19 16 -19
24 0 12 31 -54 46 -92 19z"/>
</g>
</svg>
